<?xml version="1.0" encoding="utf-8"?>
<!-- Svg Vector Icons : http://www.onlinewebfonts.com/icon -->
<!DOCTYPE svg PUBLIC "-//W3C//DTD SVG 1.1//EN" "http://www.w3.org/Graphics/SVG/1.1/DTD/svg11.dtd">
<svg version="1.1" xmlns="http://www.w3.org/2000/svg" xmlns:xlink="http://www.w3.org/1999/xlink" x="0px" y="0px" viewBox="0 0 1000 1000" enable-background="new 0 0 1000 1000" xml:space="preserve">
<metadata> Svg Vector Icons : http://www.onlinewebfonts.com/icon </metadata>
<g><g><path d="M500,262.4c125.2,0,231.3,57.1,298.1,105c79.2,56.8,120,111.6,130.6,132.6c-10.6,20.9-51.3,75.8-130.6,132.6c-66.9,47.9-172.9,105-298.1,105c-125.2,0-231.2-57.1-298.1-105C122.6,575.8,81.9,520.9,71.3,500c10.6-20.9,51.3-75.8,130.6-132.6C268.7,319.5,374.8,262.4,500,262.4 M500,203C229.4,203,10,440.6,10,500s219.4,297,490,297c270.6,0,490-237.6,490-297C990,440.6,770.6,203,500,203L500,203z M500,321.8c-98.4,0-178.2,79.8-178.2,178.2c0,98.4,79.8,178.2,178.2,178.2c98.4,0,178.2-79.8,178.2-178.2C678.2,401.6,598.4,321.8,500,321.8z M452,500c-41.6,0-75.4-33.8-75.4-75.4c0-41.6,33.8-75.4,75.4-75.4s75.4,33.8,75.4,75.4C527.4,466.2,493.7,500,452,500z"/></g><g></g><g></g><g></g><g></g><g></g><g></g><g></g><g></g><g></g><g></g><g></g><g></g><g></g><g></g><g></g></g>
</svg>